<svg xmlns="http://www.w3.org/2000/svg" xmlns:xlink="http://www.w3.org/1999/xlink" width="1080" zoomAndPan="magnify" viewBox="0 0 810 809.999993" height="1080" preserveAspectRatio="xMidYMid meet" version="1.0"><defs><g/><clipPath id="1be3ea917c"><path d="M 383.398438 401 L 695 401 L 695 726.75 L 383.398438 726.75 Z M 383.398438 401 " clip-rule="nonzero"/></clipPath><clipPath id="41d5d5f534"><path d="M 406 185 L 728.105469 185 L 728.105469 514.972656 L 406 514.972656 Z M 406 185 " clip-rule="nonzero"/></clipPath></defs><path fill="#cb2027" d="M 388.960938 420.484375 C 352.328125 385.300781 222.035156 222.203125 253.503906 171.535156 C 264.074219 154.5625 287.183594 141.519531 328.972656 133.648438 C 361.429688 81.007812 467.625 86.667969 499.832031 136.109375 C 537.199219 132.175781 562.027344 139.800781 577.519531 156.28125 C 626.683594 208.679688 490.734375 375.464844 454.59375 416.542969 C 432.71875 417.769531 410.835938 419.25 388.960938 420.484375 " fill-opacity="1" fill-rule="evenodd"/><path fill="#9e1c2e" d="M 438.867188 417.527344 L 395.101562 420.234375 C 372.484375 342.011719 349.875 263.78125 340.28125 177.4375 C 356.757812 245.089844 377.40625 311.503906 401.25 376.941406 C 401.492188 322.574219 404.9375 268.457031 413.046875 214.582031 C 410.34375 278.785156 413.046875 342.011719 417.226562 405.230469 C 447.960938 331.675781 472.296875 255.910156 491.71875 178.171875 C 482.132812 260.585938 462.953125 339.792969 438.867188 417.527344 " fill-opacity="1" fill-rule="evenodd"/><path fill="#e71d25" d="M 410.101562 446.066406 C 365.117188 469.925781 169.917969 543.722656 131.320312 497.96875 C 118.539062 482.714844 113.125 456.644531 118.78125 414.574219 C 78.710938 367.34375 116.8125 267.964844 173.851562 252.46875 C 181.472656 215.808594 196.714844 194.652344 217.121094 185.058594 C 282.019531 154.3125 398.546875 335.367188 426.328125 382.351562 C 420.914062 403.503906 415.507812 424.910156 410.101562 446.066406 " fill-opacity="1" fill-rule="evenodd"/><path fill="#b81f2d" d="M 422.390625 397.597656 L 411.578125 440.160156 C 330.203125 437.457031 248.832031 434.992188 163.769531 417.285156 C 233.347656 422.445312 302.667969 423.1875 372.242188 420.976562 C 320.863281 403.753906 270.464844 384.074219 221.785156 359.46875 C 282.019531 381.859375 342.988281 398.835938 403.953125 414.332031 C 343.726562 362.425781 279.316406 315.929688 211.464844 273.375 C 286.691406 308.0625 356.265625 350.621094 422.390625 397.597656 " fill-opacity="1" fill-rule="evenodd"/><path fill="#cb2027" d="M 440.828125 434.007812 C 449.4375 484.195312 459.265625 692.550781 403.953125 715.183594 C 385.515625 722.566406 358.96875 719.609375 320.613281 701.410156 C 263.582031 724.777344 180.980469 657.867188 183.933594 598.824219 C 151.234375 580.132812 135.742188 559.226562 133.039062 536.835938 C 123.945312 465.742188 331.925781 410.640625 385.273438 398.585938 C 403.710938 410.398438 422.148438 422.203125 440.828125 434.007812 " fill-opacity="1" fill-rule="evenodd"/><path fill="#9e1c2e" d="M 398.546875 407.199219 L 435.421875 430.570312 C 407.890625 507.3125 380.359375 583.820312 337.335938 659.347656 C 363.640625 594.890625 386.007812 528.960938 405.1875 462.054688 C 372.984375 505.84375 338.5625 547.664062 300.207031 586.277344 C 340.039062 536.097656 375.195312 483.210938 408.875 429.828125 C 340.773438 471.152344 276.613281 518.140625 215.152344 569.554688 C 271.449219 508.546875 333.398438 455.65625 398.546875 407.199219 " fill-opacity="1" fill-rule="evenodd"/><g clip-path="url(#1be3ea917c)"><path fill="#b11e2d" d="M 438.617188 401.046875 C 489.015625 408.175781 690.359375 463.289062 694.539062 522.816406 C 696.007812 542.738281 684.945312 566.847656 655.691406 597.839844 C 660.363281 659.589844 571.121094 717.398438 516.058594 696.242188 C 488.273438 721.578125 463.695312 729.945312 441.320312 725.761719 C 370.765625 712.230469 382.8125 497.226562 387.976562 442.867188 C 404.9375 428.839844 421.898438 414.824219 438.617188 401.046875 " fill-opacity="1" fill-rule="evenodd"/></g><path fill="#86182e" d="M 400.023438 432.78125 L 433.945312 404.980469 C 498.359375 454.671875 562.519531 504.859375 621.027344 569.0625 C 567.683594 524.042969 512.128906 482.472656 454.351562 443.359375 C 486.0625 487.632812 515.074219 533.394531 540.152344 581.851562 C 504.503906 528.226562 465.164062 478.535156 424.851562 430.074219 C 443.039062 507.5625 468.117188 583.078125 497.863281 657.375 C 457.304688 585.050781 426.078125 509.777344 400.023438 432.78125 " fill-opacity="1" fill-rule="evenodd"/><g clip-path="url(#41d5d5f534)"><path fill="#e71d25" d="M 406.65625 392.683594 C 429.03125 346.929688 543.589844 172.519531 601.605469 186.789062 C 620.785156 191.457031 640.699219 209.664062 660.855469 247.058594 C 720.84375 261.570312 748.375 364.394531 711.25 410.398438 C 726.742188 444.585938 726.992188 470.667969 716.171875 490.589844 C 681.75 553.316406 480.898438 475.585938 430.75 453.9375 C 422.882812 433.515625 414.773438 413.101562 406.65625 392.683594 " fill-opacity="1" fill-rule="evenodd"/></g><path fill="#b81f2d" d="M 425.09375 439.175781 L 408.875 398.585938 C 476.226562 352.589844 543.589844 306.828125 622.753906 271.164062 C 563.503906 307.816406 506.714844 348.15625 451.890625 390.710938 C 503.765625 374.480469 556.128906 360.703125 609.964844 352.097656 C 548.019531 369.3125 488.765625 391.453125 430.015625 414.824219 C 509.417969 421.460938 588.824219 420.976562 668.722656 415.558594 C 587.597656 431.796875 506.222656 438.191406 425.09375 439.175781 " fill-opacity="1" fill-rule="evenodd"/><path fill="#373332" d="M 413.296875 321.339844 C 468.851562 321.339844 513.847656 366.363281 513.847656 421.953125 C 513.847656 477.304688 468.851562 522.324219 413.296875 522.324219 C 357.984375 522.324219 312.996094 477.304688 312.996094 421.953125 C 312.996094 366.363281 357.984375 321.339844 413.296875 321.339844 " fill-opacity="1" fill-rule="evenodd"/><g fill="#545454" fill-opacity="1"><g transform="translate(412.324015, 429.580705)"><g><path d="M 1.703125 0.046875 C 1.484375 0.046875 1.289062 0.00390625 1.125 -0.078125 C 0.96875 -0.160156 0.84375 -0.273438 0.75 -0.421875 C 0.664062 -0.578125 0.625 -0.753906 0.625 -0.953125 C 0.625 -1.140625 0.664062 -1.3125 0.75 -1.46875 C 0.84375 -1.625 0.96875 -1.742188 1.125 -1.828125 C 1.289062 -1.921875 1.484375 -1.96875 1.703125 -1.96875 C 1.910156 -1.96875 2.097656 -1.921875 2.265625 -1.828125 C 2.429688 -1.742188 2.554688 -1.625 2.640625 -1.46875 C 2.722656 -1.320312 2.765625 -1.148438 2.765625 -0.953125 C 2.765625 -0.660156 2.664062 -0.421875 2.46875 -0.234375 C 2.28125 -0.046875 2.023438 0.046875 1.703125 0.046875 Z M 1.703125 0.046875 "/></g></g></g></svg>